<?xml version="1.0" encoding="UTF-8" standalone="no"?>
<!DOCTYPE svg PUBLIC "-//W3C//DTD SVG 1.1//EN"
 "http://www.w3.org/Graphics/SVG/1.1/DTD/svg11.dtd">
<!-- Generated by graphviz version 2.43.0 (0)
 -->
<!-- Title: G Pages: 1 -->
<svg width="2120pt" height="1346pt"
 viewBox="0.00 0.00 2120.20 1346.20" xmlns="http://www.w3.org/2000/svg" xmlns:xlink="http://www.w3.org/1999/xlink">
<g id="graph0" class="graph" transform="scale(1 1) rotate(0) translate(21.6 1324.6)">
<title>G</title>
<polygon fill="#111111" stroke="transparent" points="-21.6,21.6 -21.6,-1324.6 2098.6,-1324.6 2098.6,21.6 -21.6,21.6"/>
<!-- main/docker/keycloak&#45;themes&#45;folder/common/resources/lib/angular/treeview/angular.treeview.js -->
<g id="node1" class="node">
<title>main/docker/keycloak&#45;themes&#45;folder/common/resources/lib/angular/treeview/angular.treeview.js</title>
<path fill="none" stroke="#cfffac" d="M617.83,-23C617.83,-23 43.17,-23 43.17,-23 39.33,-23 35.5,-19.17 35.5,-15.33 35.5,-15.33 35.5,-7.67 35.5,-7.67 35.5,-3.83 39.33,0 43.17,0 43.17,0 617.83,0 617.83,0 621.67,0 625.5,-3.83 625.5,-7.67 625.5,-7.67 625.5,-15.33 625.5,-15.33 625.5,-19.17 621.67,-23 617.83,-23"/>
<text text-anchor="middle" x="330.5" y="-7.8" font-family="Arial" font-size="14.00" fill="#cfffac">main/docker/keycloak&#45;themes&#45;folder/common/resources/lib/angular/treeview/angular.treeview.js</text>
</g>
<!-- main/docker/keycloak&#45;themes&#45;folder/common/resources/lib/angular/treeview/angular.treeview.min.js -->
<g id="node2" class="node">
<title>main/docker/keycloak&#45;themes&#45;folder/common/resources/lib/angular/treeview/angular.treeview.min.js</title>
<path fill="none" stroke="#cfffac" d="M630.83,-64C630.83,-64 30.17,-64 30.17,-64 26.33,-64 22.5,-60.17 22.5,-56.33 22.5,-56.33 22.5,-48.67 22.5,-48.67 22.5,-44.83 26.33,-41 30.17,-41 30.17,-41 630.83,-41 630.83,-41 634.67,-41 638.5,-44.83 638.5,-48.67 638.5,-48.67 638.5,-56.33 638.5,-56.33 638.5,-60.17 634.67,-64 630.83,-64"/>
<text text-anchor="middle" x="330.5" y="-48.8" font-family="Arial" font-size="14.00" fill="#cfffac">main/docker/keycloak&#45;themes&#45;folder/common/resources/lib/angular/treeview/angular.treeview.min.js</text>
</g>
<!-- main/docker/keycloak&#45;themes&#45;folder/common/resources/lib/angular/ui&#45;bootstrap&#45;tpls&#45;0.11.0.js -->
<g id="node3" class="node">
<title>main/docker/keycloak&#45;themes&#45;folder/common/resources/lib/angular/ui&#45;bootstrap&#45;tpls&#45;0.11.0.js</title>
<path fill="none" stroke="#cfffac" d="M611.33,-105C611.33,-105 49.67,-105 49.67,-105 45.83,-105 42,-101.17 42,-97.33 42,-97.33 42,-89.67 42,-89.67 42,-85.83 45.83,-82 49.67,-82 49.67,-82 611.33,-82 611.33,-82 615.17,-82 619,-85.83 619,-89.67 619,-89.67 619,-97.33 619,-97.33 619,-101.17 615.17,-105 611.33,-105"/>
<text text-anchor="middle" x="330.5" y="-89.8" font-family="Arial" font-size="14.00" fill="#cfffac">main/docker/keycloak&#45;themes&#45;folder/common/resources/lib/angular/ui&#45;bootstrap&#45;tpls&#45;0.11.0.js</text>
</g>
<!-- main/docker/keycloak&#45;themes&#45;folder/common/resources/lib/filesaver/FileSaver.js -->
<g id="node4" class="node">
<title>main/docker/keycloak&#45;themes&#45;folder/common/resources/lib/filesaver/FileSaver.js</title>
<path fill="none" stroke="#cfffac" d="M572.83,-146C572.83,-146 88.17,-146 88.17,-146 84.33,-146 80.5,-142.17 80.5,-138.33 80.5,-138.33 80.5,-130.67 80.5,-130.67 80.5,-126.83 84.33,-123 88.17,-123 88.17,-123 572.83,-123 572.83,-123 576.67,-123 580.5,-126.83 580.5,-130.67 580.5,-130.67 580.5,-138.33 580.5,-138.33 580.5,-142.17 576.67,-146 572.83,-146"/>
<text text-anchor="middle" x="330.5" y="-130.8" font-family="Arial" font-size="14.00" fill="#cfffac">main/docker/keycloak&#45;themes&#45;folder/common/resources/lib/filesaver/FileSaver.js</text>
</g>
<!-- main/docker/keycloak&#45;themes&#45;folder/common/resources/lib/fileupload/FileAPI.min.js -->
<g id="node5" class="node">
<title>main/docker/keycloak&#45;themes&#45;folder/common/resources/lib/fileupload/FileAPI.min.js</title>
<path fill="none" stroke="#cfffac" d="M583.33,-187C583.33,-187 77.67,-187 77.67,-187 73.83,-187 70,-183.17 70,-179.33 70,-179.33 70,-171.67 70,-171.67 70,-167.83 73.83,-164 77.67,-164 77.67,-164 583.33,-164 583.33,-164 587.17,-164 591,-167.83 591,-171.67 591,-171.67 591,-179.33 591,-179.33 591,-183.17 587.17,-187 583.33,-187"/>
<text text-anchor="middle" x="330.5" y="-171.8" font-family="Arial" font-size="14.00" fill="#cfffac">main/docker/keycloak&#45;themes&#45;folder/common/resources/lib/fileupload/FileAPI.min.js</text>
</g>
<!-- main/docker/keycloak&#45;themes&#45;folder/common/resources/lib/fileupload/angular&#45;file&#45;upload&#45;html5&#45;shim.js -->
<g id="node6" class="node">
<title>main/docker/keycloak&#45;themes&#45;folder/common/resources/lib/fileupload/angular&#45;file&#45;upload&#45;html5&#45;shim.js</title>
<path fill="none" stroke="#cfffac" d="M640.33,-228C640.33,-228 20.67,-228 20.67,-228 16.83,-228 13,-224.17 13,-220.33 13,-220.33 13,-212.67 13,-212.67 13,-208.83 16.83,-205 20.67,-205 20.67,-205 640.33,-205 640.33,-205 644.17,-205 648,-208.83 648,-212.67 648,-212.67 648,-220.33 648,-220.33 648,-224.17 644.17,-228 640.33,-228"/>
<text text-anchor="middle" x="330.5" y="-212.8" font-family="Arial" font-size="14.00" fill="#cfffac">main/docker/keycloak&#45;themes&#45;folder/common/resources/lib/fileupload/angular&#45;file&#45;upload&#45;html5&#45;shim.js</text>
</g>
<!-- main/docker/keycloak&#45;themes&#45;folder/common/resources/lib/fileupload/angular&#45;file&#45;upload&#45;html5&#45;shim.min.js -->
<g id="node7" class="node">
<title>main/docker/keycloak&#45;themes&#45;folder/common/resources/lib/fileupload/angular&#45;file&#45;upload&#45;html5&#45;shim.min.js</title>
<path fill="none" stroke="#cfffac" d="M653.33,-269C653.33,-269 7.67,-269 7.67,-269 3.83,-269 0,-265.17 0,-261.33 0,-261.33 0,-253.67 0,-253.67 0,-249.83 3.83,-246 7.67,-246 7.67,-246 653.33,-246 653.33,-246 657.17,-246 661,-249.83 661,-253.67 661,-253.67 661,-261.33 661,-261.33 661,-265.17 657.17,-269 653.33,-269"/>
<text text-anchor="middle" x="330.5" y="-253.8" font-family="Arial" font-size="14.00" fill="#cfffac">main/docker/keycloak&#45;themes&#45;folder/common/resources/lib/fileupload/angular&#45;file&#45;upload&#45;html5&#45;shim.min.js</text>
</g>
<!-- main/docker/keycloak&#45;themes&#45;folder/common/resources/lib/fileupload/angular&#45;file&#45;upload&#45;shim.js -->
<g id="node8" class="node">
<title>main/docker/keycloak&#45;themes&#45;folder/common/resources/lib/fileupload/angular&#45;file&#45;upload&#45;shim.js</title>
<path fill="none" stroke="#cfffac" d="M620.83,-310C620.83,-310 40.17,-310 40.17,-310 36.33,-310 32.5,-306.17 32.5,-302.33 32.5,-302.33 32.5,-294.67 32.5,-294.67 32.5,-290.83 36.33,-287 40.17,-287 40.17,-287 620.83,-287 620.83,-287 624.67,-287 628.5,-290.83 628.5,-294.67 628.5,-294.67 628.5,-302.33 628.5,-302.33 628.5,-306.17 624.67,-310 620.83,-310"/>
<text text-anchor="middle" x="330.5" y="-294.8" font-family="Arial" font-size="14.00" fill="#cfffac">main/docker/keycloak&#45;themes&#45;folder/common/resources/lib/fileupload/angular&#45;file&#45;upload&#45;shim.js</text>
</g>
<!-- main/docker/keycloak&#45;themes&#45;folder/common/resources/lib/fileupload/angular&#45;file&#45;upload&#45;shim.min.js -->
<g id="node9" class="node">
<title>main/docker/keycloak&#45;themes&#45;folder/common/resources/lib/fileupload/angular&#45;file&#45;upload&#45;shim.min.js</title>
<path fill="none" stroke="#cfffac" d="M634.33,-351C634.33,-351 26.67,-351 26.67,-351 22.83,-351 19,-347.17 19,-343.33 19,-343.33 19,-335.67 19,-335.67 19,-331.83 22.83,-328 26.67,-328 26.67,-328 634.33,-328 634.33,-328 638.17,-328 642,-331.83 642,-335.67 642,-335.67 642,-343.33 642,-343.33 642,-347.17 638.17,-351 634.33,-351"/>
<text text-anchor="middle" x="330.5" y="-335.8" font-family="Arial" font-size="14.00" fill="#cfffac">main/docker/keycloak&#45;themes&#45;folder/common/resources/lib/fileupload/angular&#45;file&#45;upload&#45;shim.min.js</text>
</g>
<!-- main/docker/keycloak&#45;themes&#45;folder/common/resources/lib/fileupload/angular&#45;file&#45;upload.js -->
<g id="node10" class="node">
<title>main/docker/keycloak&#45;themes&#45;folder/common/resources/lib/fileupload/angular&#45;file&#45;upload.js</title>
<path fill="none" stroke="#cfffac" d="M604.33,-392C604.33,-392 56.67,-392 56.67,-392 52.83,-392 49,-388.17 49,-384.33 49,-384.33 49,-376.67 49,-376.67 49,-372.83 52.83,-369 56.67,-369 56.67,-369 604.33,-369 604.33,-369 608.17,-369 612,-372.83 612,-376.67 612,-376.67 612,-384.33 612,-384.33 612,-388.17 608.17,-392 604.33,-392"/>
<text text-anchor="middle" x="330.5" y="-376.8" font-family="Arial" font-size="14.00" fill="#cfffac">main/docker/keycloak&#45;themes&#45;folder/common/resources/lib/fileupload/angular&#45;file&#45;upload.js</text>
</g>
<!-- main/docker/keycloak&#45;themes&#45;folder/common/resources/lib/fileupload/angular&#45;file&#45;upload.min.js -->
<g id="node11" class="node">
<title>main/docker/keycloak&#45;themes&#45;folder/common/resources/lib/fileupload/angular&#45;file&#45;upload.min.js</title>
<path fill="none" stroke="#cfffac" d="M617.33,-433C617.33,-433 43.67,-433 43.67,-433 39.83,-433 36,-429.17 36,-425.33 36,-425.33 36,-417.67 36,-417.67 36,-413.83 39.83,-410 43.67,-410 43.67,-410 617.33,-410 617.33,-410 621.17,-410 625,-413.83 625,-417.67 625,-417.67 625,-425.33 625,-425.33 625,-429.17 621.17,-433 617.33,-433"/>
<text text-anchor="middle" x="330.5" y="-417.8" font-family="Arial" font-size="14.00" fill="#cfffac">main/docker/keycloak&#45;themes&#45;folder/common/resources/lib/fileupload/angular&#45;file&#45;upload.min.js</text>
</g>
<!-- main/docker/keycloak&#45;themes&#45;folder/common/resources/lib/ui&#45;ace/ace.js -->
<g id="node12" class="node">
<title>main/docker/keycloak&#45;themes&#45;folder/common/resources/lib/ui&#45;ace/ace.js</title>
<path fill="none" stroke="#cfffac" d="M548.83,-474C548.83,-474 112.17,-474 112.17,-474 108.33,-474 104.5,-470.17 104.5,-466.33 104.5,-466.33 104.5,-458.67 104.5,-458.67 104.5,-454.83 108.33,-451 112.17,-451 112.17,-451 548.83,-451 548.83,-451 552.67,-451 556.5,-454.83 556.5,-458.67 556.5,-458.67 556.5,-466.33 556.5,-466.33 556.5,-470.17 552.67,-474 548.83,-474"/>
<text text-anchor="middle" x="330.5" y="-458.8" font-family="Arial" font-size="14.00" fill="#cfffac">main/docker/keycloak&#45;themes&#45;folder/common/resources/lib/ui&#45;ace/ace.js</text>
</g>
<!-- main/docker/keycloak&#45;themes&#45;folder/common/resources/lib/ui&#45;ace/min/ace.js -->
<g id="node13" class="node">
<title>main/docker/keycloak&#45;themes&#45;folder/common/resources/lib/ui&#45;ace/min/ace.js</title>
<path fill="none" stroke="#cfffac" d="M561.83,-515C561.83,-515 99.17,-515 99.17,-515 95.33,-515 91.5,-511.17 91.5,-507.33 91.5,-507.33 91.5,-499.67 91.5,-499.67 91.5,-495.83 95.33,-492 99.17,-492 99.17,-492 561.83,-492 561.83,-492 565.67,-492 569.5,-495.83 569.5,-499.67 569.5,-499.67 569.5,-507.33 569.5,-507.33 569.5,-511.17 565.67,-515 561.83,-515"/>
<text text-anchor="middle" x="330.5" y="-499.8" font-family="Arial" font-size="14.00" fill="#cfffac">main/docker/keycloak&#45;themes&#45;folder/common/resources/lib/ui&#45;ace/min/ace.js</text>
</g>
<!-- main/docker/keycloak&#45;themes&#45;folder/common/resources/lib/ui&#45;ace/min/mode&#45;javascript.js -->
<g id="node14" class="node">
<title>main/docker/keycloak&#45;themes&#45;folder/common/resources/lib/ui&#45;ace/min/mode&#45;javascript.js</title>
<path fill="none" stroke="#cfffac" d="M598.83,-556C598.83,-556 62.17,-556 62.17,-556 58.33,-556 54.5,-552.17 54.5,-548.33 54.5,-548.33 54.5,-540.67 54.5,-540.67 54.5,-536.83 58.33,-533 62.17,-533 62.17,-533 598.83,-533 598.83,-533 602.67,-533 606.5,-536.83 606.5,-540.67 606.5,-540.67 606.5,-548.33 606.5,-548.33 606.5,-552.17 602.67,-556 598.83,-556"/>
<text text-anchor="middle" x="330.5" y="-540.8" font-family="Arial" font-size="14.00" fill="#cfffac">main/docker/keycloak&#45;themes&#45;folder/common/resources/lib/ui&#45;ace/min/mode&#45;javascript.js</text>
</g>
<!-- main/docker/keycloak&#45;themes&#45;folder/common/resources/lib/ui&#45;ace/min/theme&#45;github.js -->
<g id="node15" class="node">
<title>main/docker/keycloak&#45;themes&#45;folder/common/resources/lib/ui&#45;ace/min/theme&#45;github.js</title>
<path fill="none" stroke="#cfffac" d="M590.83,-597C590.83,-597 70.17,-597 70.17,-597 66.33,-597 62.5,-593.17 62.5,-589.33 62.5,-589.33 62.5,-581.67 62.5,-581.67 62.5,-577.83 66.33,-574 70.17,-574 70.17,-574 590.83,-574 590.83,-574 594.67,-574 598.5,-577.83 598.5,-581.67 598.5,-581.67 598.5,-589.33 598.5,-589.33 598.5,-593.17 594.67,-597 590.83,-597"/>
<text text-anchor="middle" x="330.5" y="-581.8" font-family="Arial" font-size="14.00" fill="#cfffac">main/docker/keycloak&#45;themes&#45;folder/common/resources/lib/ui&#45;ace/min/theme&#45;github.js</text>
</g>
<!-- main/docker/keycloak&#45;themes&#45;folder/common/resources/lib/ui&#45;ace/min/worker&#45;javascript.js -->
<g id="node16" class="node">
<title>main/docker/keycloak&#45;themes&#45;folder/common/resources/lib/ui&#45;ace/min/worker&#45;javascript.js</title>
<path fill="none" stroke="#cfffac" d="M601.83,-638C601.83,-638 59.17,-638 59.17,-638 55.33,-638 51.5,-634.17 51.5,-630.33 51.5,-630.33 51.5,-622.67 51.5,-622.67 51.5,-618.83 55.33,-615 59.17,-615 59.17,-615 601.83,-615 601.83,-615 605.67,-615 609.5,-618.83 609.5,-622.67 609.5,-622.67 609.5,-630.33 609.5,-630.33 609.5,-634.17 605.67,-638 601.83,-638"/>
<text text-anchor="middle" x="330.5" y="-622.8" font-family="Arial" font-size="14.00" fill="#cfffac">main/docker/keycloak&#45;themes&#45;folder/common/resources/lib/ui&#45;ace/min/worker&#45;javascript.js</text>
</g>
<!-- main/docker/keycloak&#45;themes&#45;folder/common/resources/lib/ui&#45;ace/mode&#45;javascript.js -->
<g id="node17" class="node">
<title>main/docker/keycloak&#45;themes&#45;folder/common/resources/lib/ui&#45;ace/mode&#45;javascript.js</title>
<path fill="none" stroke="#cfffac" d="M585.83,-679C585.83,-679 75.17,-679 75.17,-679 71.33,-679 67.5,-675.17 67.5,-671.33 67.5,-671.33 67.5,-663.67 67.5,-663.67 67.5,-659.83 71.33,-656 75.17,-656 75.17,-656 585.83,-656 585.83,-656 589.67,-656 593.5,-659.83 593.5,-663.67 593.5,-663.67 593.5,-671.33 593.5,-671.33 593.5,-675.17 589.67,-679 585.83,-679"/>
<text text-anchor="middle" x="330.5" y="-663.8" font-family="Arial" font-size="14.00" fill="#cfffac">main/docker/keycloak&#45;themes&#45;folder/common/resources/lib/ui&#45;ace/mode&#45;javascript.js</text>
</g>
<!-- main/docker/keycloak&#45;themes&#45;folder/common/resources/lib/ui&#45;ace/theme&#45;github.js -->
<g id="node18" class="node">
<title>main/docker/keycloak&#45;themes&#45;folder/common/resources/lib/ui&#45;ace/theme&#45;github.js</title>
<path fill="none" stroke="#cfffac" d="M577.33,-720C577.33,-720 83.67,-720 83.67,-720 79.83,-720 76,-716.17 76,-712.33 76,-712.33 76,-704.67 76,-704.67 76,-700.83 79.83,-697 83.67,-697 83.67,-697 577.33,-697 577.33,-697 581.17,-697 585,-700.83 585,-704.67 585,-704.67 585,-712.33 585,-712.33 585,-716.17 581.17,-720 577.33,-720"/>
<text text-anchor="middle" x="330.5" y="-704.8" font-family="Arial" font-size="14.00" fill="#cfffac">main/docker/keycloak&#45;themes&#45;folder/common/resources/lib/ui&#45;ace/theme&#45;github.js</text>
</g>
<!-- main/docker/keycloak&#45;themes&#45;folder/common/resources/lib/ui&#45;ace/ui&#45;ace.js -->
<g id="node19" class="node">
<title>main/docker/keycloak&#45;themes&#45;folder/common/resources/lib/ui&#45;ace/ui&#45;ace.js</title>
<path fill="none" stroke="#cfffac" d="M556.33,-761C556.33,-761 104.67,-761 104.67,-761 100.83,-761 97,-757.17 97,-753.33 97,-753.33 97,-745.67 97,-745.67 97,-741.83 100.83,-738 104.67,-738 104.67,-738 556.33,-738 556.33,-738 560.17,-738 564,-741.83 564,-745.67 564,-745.67 564,-753.33 564,-753.33 564,-757.17 560.17,-761 556.33,-761"/>
<text text-anchor="middle" x="330.5" y="-745.8" font-family="Arial" font-size="14.00" fill="#cfffac">main/docker/keycloak&#45;themes&#45;folder/common/resources/lib/ui&#45;ace/ui&#45;ace.js</text>
</g>
<!-- main/docker/keycloak&#45;themes&#45;folder/common/resources/lib/ui&#45;ace/ui&#45;ace.min.js -->
<g id="node20" class="node">
<title>main/docker/keycloak&#45;themes&#45;folder/common/resources/lib/ui&#45;ace/ui&#45;ace.min.js</title>
<path fill="none" stroke="#cfffac" d="M569.33,-802C569.33,-802 91.67,-802 91.67,-802 87.83,-802 84,-798.17 84,-794.33 84,-794.33 84,-786.67 84,-786.67 84,-782.83 87.83,-779 91.67,-779 91.67,-779 569.33,-779 569.33,-779 573.17,-779 577,-782.83 577,-786.67 577,-786.67 577,-794.33 577,-794.33 577,-798.17 573.17,-802 569.33,-802"/>
<text text-anchor="middle" x="330.5" y="-786.8" font-family="Arial" font-size="14.00" fill="#cfffac">main/docker/keycloak&#45;themes&#45;folder/common/resources/lib/ui&#45;ace/ui&#45;ace.min.js</text>
</g>
<!-- main/docker/keycloak&#45;themes&#45;folder/common/resources/lib/ui&#45;ace/worker&#45;javascript.js -->
<g id="node21" class="node">
<title>main/docker/keycloak&#45;themes&#45;folder/common/resources/lib/ui&#45;ace/worker&#45;javascript.js</title>
<path fill="none" stroke="#cfffac" d="M588.83,-843C588.83,-843 72.17,-843 72.17,-843 68.33,-843 64.5,-839.17 64.5,-835.33 64.5,-835.33 64.5,-827.67 64.5,-827.67 64.5,-823.83 68.33,-820 72.17,-820 72.17,-820 588.83,-820 588.83,-820 592.67,-820 596.5,-823.83 596.5,-827.67 596.5,-827.67 596.5,-835.33 596.5,-835.33 596.5,-839.17 592.67,-843 588.83,-843"/>
<text text-anchor="middle" x="330.5" y="-827.8" font-family="Arial" font-size="14.00" fill="#cfffac">main/docker/keycloak&#45;themes&#45;folder/common/resources/lib/ui&#45;ace/worker&#45;javascript.js</text>
</g>
<!-- main/docker/keycloak&#45;themes&#45;folder/common/resources/web_modules/@patternfly/react&#45;core.js -->
<g id="node22" class="node">
<title>main/docker/keycloak&#45;themes&#45;folder/common/resources/web_modules/@patternfly/react&#45;core.js</title>
<path fill="none" stroke="#c6c5fe" d="M619.83,-1080C619.83,-1080 41.17,-1080 41.17,-1080 37.33,-1080 33.5,-1076.17 33.5,-1072.33 33.5,-1072.33 33.5,-1064.67 33.5,-1064.67 33.5,-1060.83 37.33,-1057 41.17,-1057 41.17,-1057 619.83,-1057 619.83,-1057 623.67,-1057 627.5,-1060.83 627.5,-1064.67 627.5,-1064.67 627.5,-1072.33 627.5,-1072.33 627.5,-1076.17 623.67,-1080 619.83,-1080"/>
<text text-anchor="middle" x="330.5" y="-1064.8" font-family="Arial" font-size="14.00" fill="#c6c5fe">main/docker/keycloak&#45;themes&#45;folder/common/resources/web_modules/@patternfly/react&#45;core.js</text>
</g>
<!-- main/docker/keycloak&#45;themes&#45;folder/common/resources/web_modules/common/StyleSheet&#45;4aea8eab.js -->
<g id="node23" class="node">
<title>main/docker/keycloak&#45;themes&#45;folder/common/resources/web_modules/common/StyleSheet&#45;4aea8eab.js</title>
<path fill="none" stroke="#c6c5fe" d="M1336.33,-1160C1336.33,-1160 704.67,-1160 704.67,-1160 700.83,-1160 697,-1156.17 697,-1152.33 697,-1152.33 697,-1144.67 697,-1144.67 697,-1140.83 700.83,-1137 704.67,-1137 704.67,-1137 1336.33,-1137 1336.33,-1137 1340.17,-1137 1344,-1140.83 1344,-1144.67 1344,-1144.67 1344,-1152.33 1344,-1152.33 1344,-1156.17 1340.17,-1160 1336.33,-1160"/>
<text text-anchor="middle" x="1020.5" y="-1144.8" font-family="Arial" font-size="14.00" fill="#c6c5fe">main/docker/keycloak&#45;themes&#45;folder/common/resources/web_modules/common/StyleSheet&#45;4aea8eab.js</text>
</g>
<!-- main/docker/keycloak&#45;themes&#45;folder/common/resources/web_modules/@patternfly/react&#45;core.js&#45;&gt;main/docker/keycloak&#45;themes&#45;folder/common/resources/web_modules/common/StyleSheet&#45;4aea8eab.js -->
<g id="edge1" class="edge">
<title>main/docker/keycloak&#45;themes&#45;folder/common/resources/web_modules/@patternfly/react&#45;core.js&#45;&gt;main/docker/keycloak&#45;themes&#45;folder/common/resources/web_modules/common/StyleSheet&#45;4aea8eab.js</title>
<path fill="none" stroke="#757575" d="M400.03,-1080.01C473.35,-1092 593.12,-1110.65 697,-1122.5 743.27,-1127.78 793.41,-1132.36 840.04,-1136.15"/>
<polygon fill="#757575" stroke="#757575" points="840,-1139.66 850.25,-1136.97 840.56,-1132.68 840,-1139.66"/>
</g>
<!-- main/docker/keycloak&#45;themes&#45;folder/common/resources/web_modules/common/_commonjsHelpers&#45;a0c1554c.js -->
<g id="node24" class="node">
<title>main/docker/keycloak&#45;themes&#45;folder/common/resources/web_modules/common/_commonjsHelpers&#45;a0c1554c.js</title>
<path fill="none" stroke="#cfffac" d="M2069.33,-1051C2069.33,-1051 1387.67,-1051 1387.67,-1051 1383.83,-1051 1380,-1047.17 1380,-1043.33 1380,-1043.33 1380,-1035.67 1380,-1035.67 1380,-1031.83 1383.83,-1028 1387.67,-1028 1387.67,-1028 2069.33,-1028 2069.33,-1028 2073.17,-1028 2077,-1031.83 2077,-1035.67 2077,-1035.67 2077,-1043.33 2077,-1043.33 2077,-1047.17 2073.17,-1051 2069.33,-1051"/>
<text text-anchor="middle" x="1728.5" y="-1035.8" font-family="Arial" font-size="14.00" fill="#cfffac">main/docker/keycloak&#45;themes&#45;folder/common/resources/web_modules/common/_commonjsHelpers&#45;a0c1554c.js</text>
</g>
<!-- main/docker/keycloak&#45;themes&#45;folder/common/resources/web_modules/@patternfly/react&#45;core.js&#45;&gt;main/docker/keycloak&#45;themes&#45;folder/common/resources/web_modules/common/_commonjsHelpers&#45;a0c1554c.js -->
<g id="edge2" class="edge">
<title>main/docker/keycloak&#45;themes&#45;folder/common/resources/web_modules/@patternfly/react&#45;core.js&#45;&gt;main/docker/keycloak&#45;themes&#45;folder/common/resources/web_modules/common/_commonjsHelpers&#45;a0c1554c.js</title>
<path fill="none" stroke="#757575" d="M506.18,-1080.01C566.59,-1083.47 634.74,-1086.8 697,-1088.5 984.45,-1096.36 1057.02,-1106.76 1344,-1088.5 1449.78,-1081.77 1570.98,-1064.7 1648.33,-1052.6"/>
<polygon fill="#757575" stroke="#757575" points="1649.14,-1056.02 1658.47,-1051.01 1648.05,-1049.1 1649.14,-1056.02"/>
</g>
<!-- main/docker/keycloak&#45;themes&#45;folder/common/resources/web_modules/common/index&#45;3a303faf.js -->
<g id="node25" class="node">
<title>main/docker/keycloak&#45;themes&#45;folder/common/resources/web_modules/common/index&#45;3a303faf.js</title>
<path fill="none" stroke="#c6c5fe" d="M1315.83,-962C1315.83,-962 725.17,-962 725.17,-962 721.33,-962 717.5,-958.17 717.5,-954.33 717.5,-954.33 717.5,-946.67 717.5,-946.67 717.5,-942.83 721.33,-939 725.17,-939 725.17,-939 1315.83,-939 1315.83,-939 1319.67,-939 1323.5,-942.83 1323.5,-946.67 1323.5,-946.67 1323.5,-954.33 1323.5,-954.33 1323.5,-958.17 1319.67,-962 1315.83,-962"/>
<text text-anchor="middle" x="1020.5" y="-946.8" font-family="Arial" font-size="14.00" fill="#c6c5fe">main/docker/keycloak&#45;themes&#45;folder/common/resources/web_modules/common/index&#45;3a303faf.js</text>
</g>
<!-- main/docker/keycloak&#45;themes&#45;folder/common/resources/web_modules/@patternfly/react&#45;core.js&#45;&gt;main/docker/keycloak&#45;themes&#45;folder/common/resources/web_modules/common/index&#45;3a303faf.js -->
<g id="edge3" class="edge">
<title>main/docker/keycloak&#45;themes&#45;folder/common/resources/web_modules/@patternfly/react&#45;core.js&#45;&gt;main/docker/keycloak&#45;themes&#45;folder/common/resources/web_modules/common/index&#45;3a303faf.js</title>
<path fill="none" stroke="#757575" d="M398.72,-1056.97C527.12,-1034.95 806.55,-987.02 942.34,-963.73"/>
<polygon fill="#757575" stroke="#757575" points="943,-967.17 952.26,-962.03 941.81,-960.27 943,-967.17"/>
</g>
<!-- main/docker/keycloak&#45;themes&#45;folder/common/resources/web_modules/react&#45;dom.js -->
<g id="node26" class="node">
<title>main/docker/keycloak&#45;themes&#45;folder/common/resources/web_modules/react&#45;dom.js</title>
<path fill="none" stroke="#c6c5fe" d="M1273.33,-1080C1273.33,-1080 767.67,-1080 767.67,-1080 763.83,-1080 760,-1076.17 760,-1072.33 760,-1072.33 760,-1064.67 760,-1064.67 760,-1060.83 763.83,-1057 767.67,-1057 767.67,-1057 1273.33,-1057 1273.33,-1057 1277.17,-1057 1281,-1060.83 1281,-1064.67 1281,-1064.67 1281,-1072.33 1281,-1072.33 1281,-1076.17 1277.17,-1080 1273.33,-1080"/>
<text text-anchor="middle" x="1020.5" y="-1064.8" font-family="Arial" font-size="14.00" fill="#c6c5fe">main/docker/keycloak&#45;themes&#45;folder/common/resources/web_modules/react&#45;dom.js</text>
</g>
<!-- main/docker/keycloak&#45;themes&#45;folder/common/resources/web_modules/@patternfly/react&#45;core.js&#45;&gt;main/docker/keycloak&#45;themes&#45;folder/common/resources/web_modules/react&#45;dom.js -->
<g id="edge4" class="edge">
<title>main/docker/keycloak&#45;themes&#45;folder/common/resources/web_modules/@patternfly/react&#45;core.js&#45;&gt;main/docker/keycloak&#45;themes&#45;folder/common/resources/web_modules/react&#45;dom.js</title>
<path fill="none" stroke="#757575" d="M627.77,-1068.5C668.28,-1068.5 709.69,-1068.5 749.7,-1068.5"/>
<polygon fill="#757575" stroke="#757575" points="749.84,-1072 759.84,-1068.5 749.84,-1065 749.84,-1072"/>
</g>
<!-- main/docker/keycloak&#45;themes&#45;folder/common/resources/web_modules/react.js -->
<g id="node27" class="node">
<title>main/docker/keycloak&#45;themes&#45;folder/common/resources/web_modules/react.js</title>
<path fill="none" stroke="#cfffac" d="M1965.83,-991C1965.83,-991 1491.17,-991 1491.17,-991 1487.33,-991 1483.5,-987.17 1483.5,-983.33 1483.5,-983.33 1483.5,-975.67 1483.5,-975.67 1483.5,-971.83 1487.33,-968 1491.17,-968 1491.17,-968 1965.83,-968 1965.83,-968 1969.67,-968 1973.5,-971.83 1973.5,-975.67 1973.5,-975.67 1973.5,-983.33 1973.5,-983.33 1973.5,-987.17 1969.67,-991 1965.83,-991"/>
<text text-anchor="middle" x="1728.5" y="-975.8" font-family="Arial" font-size="14.00" fill="#cfffac">main/docker/keycloak&#45;themes&#45;folder/common/resources/web_modules/react.js</text>
</g>
<!-- main/docker/keycloak&#45;themes&#45;folder/common/resources/web_modules/@patternfly/react&#45;core.js&#45;&gt;main/docker/keycloak&#45;themes&#45;folder/common/resources/web_modules/react.js -->
<g id="edge5" class="edge">
<title>main/docker/keycloak&#45;themes&#45;folder/common/resources/web_modules/@patternfly/react&#45;core.js&#45;&gt;main/docker/keycloak&#45;themes&#45;folder/common/resources/web_modules/react.js</title>
<path fill="none" stroke="#757575" d="M512.21,-1056.98C776.59,-1040.12 1266.59,-1008.88 1536.62,-991.67"/>
<polygon fill="#757575" stroke="#757575" points="1537.16,-995.14 1546.92,-991.01 1536.72,-988.16 1537.16,-995.14"/>
</g>
<!-- main/docker/keycloak&#45;themes&#45;folder/common/resources/web_modules/common/StyleSheet&#45;4aea8eab.js&#45;&gt;main/docker/keycloak&#45;themes&#45;folder/common/resources/web_modules/common/_commonjsHelpers&#45;a0c1554c.js -->
<g id="edge11" class="edge">
<title>main/docker/keycloak&#45;themes&#45;folder/common/resources/web_modules/common/StyleSheet&#45;4aea8eab.js&#45;&gt;main/docker/keycloak&#45;themes&#45;folder/common/resources/web_modules/common/_commonjsHelpers&#45;a0c1554c.js</title>
<path fill="none" stroke="#757575" d="M1216.39,-1136.98C1258.59,-1133.32 1302.88,-1128.58 1344,-1122.5 1462.75,-1104.94 1599.72,-1072.23 1673.57,-1053.55"/>
<polygon fill="#757575" stroke="#757575" points="1674.73,-1056.86 1683.56,-1051 1673.01,-1050.08 1674.73,-1056.86"/>
</g>
<!-- main/docker/keycloak&#45;themes&#45;folder/common/resources/web_modules/common/index&#45;3a303faf.js&#45;&gt;main/docker/keycloak&#45;themes&#45;folder/common/resources/web_modules/common/_commonjsHelpers&#45;a0c1554c.js -->
<g id="edge12" class="edge">
<title>main/docker/keycloak&#45;themes&#45;folder/common/resources/web_modules/common/index&#45;3a303faf.js&#45;&gt;main/docker/keycloak&#45;themes&#45;folder/common/resources/web_modules/common/_commonjsHelpers&#45;a0c1554c.js</title>
<path fill="none" stroke="#757575" d="M1290.16,-962.04C1308.59,-965.92 1326.7,-970.68 1344,-976.5 1362,-982.55 1362.11,-993.14 1380,-999.5 1413.87,-1011.54 1450.65,-1020.15 1487.18,-1026.27"/>
<polygon fill="#757575" stroke="#757575" points="1487.05,-1029.8 1497.48,-1027.94 1488.17,-1022.89 1487.05,-1029.8"/>
</g>
<!-- main/docker/keycloak&#45;themes&#45;folder/common/resources/web_modules/react&#45;dom.js&#45;&gt;main/docker/keycloak&#45;themes&#45;folder/common/resources/web_modules/react.js -->
<g id="edge13" class="edge">
<title>main/docker/keycloak&#45;themes&#45;folder/common/resources/web_modules/react&#45;dom.js&#45;&gt;main/docker/keycloak&#45;themes&#45;folder/common/resources/web_modules/react.js</title>
<path fill="none" stroke="#757575" d="M1281.35,-1059.2C1302.83,-1054.93 1323.97,-1049.46 1344,-1042.5 1362.17,-1036.19 1361.94,-1025.09 1380,-1018.5 1411.27,-1007.09 1445.09,-998.78 1478.94,-992.76"/>
<polygon fill="#757575" stroke="#757575" points="1479.69,-996.18 1488.96,-991.04 1478.51,-989.28 1479.69,-996.18"/>
</g>
<!-- main/docker/keycloak&#45;themes&#45;folder/common/resources/web_modules/@patternfly/react&#45;icons.js -->
<g id="node28" class="node">
<title>main/docker/keycloak&#45;themes&#45;folder/common/resources/web_modules/@patternfly/react&#45;icons.js</title>
<path fill="none" stroke="#c6c5fe" d="M622.33,-962C622.33,-962 38.67,-962 38.67,-962 34.83,-962 31,-958.17 31,-954.33 31,-954.33 31,-946.67 31,-946.67 31,-942.83 34.83,-939 38.67,-939 38.67,-939 622.33,-939 622.33,-939 626.17,-939 630,-942.83 630,-946.67 630,-946.67 630,-954.33 630,-954.33 630,-958.17 626.17,-962 622.33,-962"/>
<text text-anchor="middle" x="330.5" y="-946.8" font-family="Arial" font-size="14.00" fill="#c6c5fe">main/docker/keycloak&#45;themes&#45;folder/common/resources/web_modules/@patternfly/react&#45;icons.js</text>
</g>
<!-- main/docker/keycloak&#45;themes&#45;folder/common/resources/web_modules/@patternfly/react&#45;icons.js&#45;&gt;main/docker/keycloak&#45;themes&#45;folder/common/resources/web_modules/common/_commonjsHelpers&#45;a0c1554c.js -->
<g id="edge6" class="edge">
<title>main/docker/keycloak&#45;themes&#45;folder/common/resources/web_modules/@patternfly/react&#45;icons.js&#45;&gt;main/docker/keycloak&#45;themes&#45;folder/common/resources/web_modules/common/_commonjsHelpers&#45;a0c1554c.js</title>
<path fill="none" stroke="#757575" d="M512.21,-962.02C776.59,-978.88 1266.59,-1010.12 1536.62,-1027.33"/>
<polygon fill="#757575" stroke="#757575" points="1536.72,-1030.84 1546.92,-1027.99 1537.16,-1023.86 1536.72,-1030.84"/>
</g>
<!-- main/docker/keycloak&#45;themes&#45;folder/common/resources/web_modules/@patternfly/react&#45;icons.js&#45;&gt;main/docker/keycloak&#45;themes&#45;folder/common/resources/web_modules/common/index&#45;3a303faf.js -->
<g id="edge7" class="edge">
<title>main/docker/keycloak&#45;themes&#45;folder/common/resources/web_modules/@patternfly/react&#45;icons.js&#45;&gt;main/docker/keycloak&#45;themes&#45;folder/common/resources/web_modules/common/index&#45;3a303faf.js</title>
<path fill="none" stroke="#757575" d="M630.27,-950.5C655.8,-950.5 681.67,-950.5 707.3,-950.5"/>
<polygon fill="#757575" stroke="#757575" points="707.49,-954 717.49,-950.5 707.49,-947 707.49,-954"/>
</g>
<!-- main/docker/keycloak&#45;themes&#45;folder/common/resources/web_modules/@patternfly/react&#45;icons.js&#45;&gt;main/docker/keycloak&#45;themes&#45;folder/common/resources/web_modules/react.js -->
<g id="edge8" class="edge">
<title>main/docker/keycloak&#45;themes&#45;folder/common/resources/web_modules/@patternfly/react&#45;icons.js&#45;&gt;main/docker/keycloak&#45;themes&#45;folder/common/resources/web_modules/react.js</title>
<path fill="none" stroke="#757575" d="M496.99,-938.98C559.61,-935.14 631.56,-931.38 697,-929.5 984.44,-921.25 1057.05,-910.87 1344,-929.5 1450.44,-936.41 1572.47,-954 1649.74,-966.35"/>
<polygon fill="#757575" stroke="#757575" points="1649.44,-969.85 1659.87,-967.98 1650.55,-962.94 1649.44,-969.85"/>
</g>
<!-- main/docker/keycloak&#45;themes&#45;folder/common/resources/web_modules/@patternfly/react&#45;styles.js -->
<g id="node29" class="node">
<title>main/docker/keycloak&#45;themes&#45;folder/common/resources/web_modules/@patternfly/react&#45;styles.js</title>
<path fill="none" stroke="#c6c5fe" d="M623.83,-1180C623.83,-1180 37.17,-1180 37.17,-1180 33.33,-1180 29.5,-1176.17 29.5,-1172.33 29.5,-1172.33 29.5,-1164.67 29.5,-1164.67 29.5,-1160.83 33.33,-1157 37.17,-1157 37.17,-1157 623.83,-1157 623.83,-1157 627.67,-1157 631.5,-1160.83 631.5,-1164.67 631.5,-1164.67 631.5,-1172.33 631.5,-1172.33 631.5,-1176.17 627.67,-1180 623.83,-1180"/>
<text text-anchor="middle" x="330.5" y="-1164.8" font-family="Arial" font-size="14.00" fill="#c6c5fe">main/docker/keycloak&#45;themes&#45;folder/common/resources/web_modules/@patternfly/react&#45;styles.js</text>
</g>
<!-- main/docker/keycloak&#45;themes&#45;folder/common/resources/web_modules/@patternfly/react&#45;styles.js&#45;&gt;main/docker/keycloak&#45;themes&#45;folder/common/resources/web_modules/common/StyleSheet&#45;4aea8eab.js -->
<g id="edge9" class="edge">
<title>main/docker/keycloak&#45;themes&#45;folder/common/resources/web_modules/@patternfly/react&#45;styles.js&#45;&gt;main/docker/keycloak&#45;themes&#45;folder/common/resources/web_modules/common/StyleSheet&#45;4aea8eab.js</title>
<path fill="none" stroke="#757575" d="M631.52,-1159.78C649.76,-1159.25 668.18,-1158.71 686.56,-1158.18"/>
<polygon fill="#757575" stroke="#757575" points="686.86,-1161.67 696.76,-1157.88 686.66,-1154.67 686.86,-1161.67"/>
</g>
<!-- main/docker/keycloak&#45;themes&#45;folder/common/resources/web_modules/@patternfly/react&#45;styles.js&#45;&gt;main/docker/keycloak&#45;themes&#45;folder/common/resources/web_modules/common/_commonjsHelpers&#45;a0c1554c.js -->
<g id="edge10" class="edge">
<title>main/docker/keycloak&#45;themes&#45;folder/common/resources/web_modules/@patternfly/react&#45;styles.js&#45;&gt;main/docker/keycloak&#45;themes&#45;folder/common/resources/web_modules/common/_commonjsHelpers&#45;a0c1554c.js</title>
<path fill="none" stroke="#757575" d="M631.77,-1179.62C879.96,-1186.81 1212.19,-1191.23 1344,-1169.5 1477.6,-1147.47 1627.26,-1085 1693.18,-1055.41"/>
<polygon fill="#757575" stroke="#757575" points="1694.99,-1058.44 1702.66,-1051.13 1692.1,-1052.06 1694.99,-1058.44"/>
</g>
<!-- main/docker/keycloak&#45;themes&#45;folder/common/resources/web_modules/react&#45;router&#45;dom.js -->
<g id="node30" class="node">
<title>main/docker/keycloak&#45;themes&#45;folder/common/resources/web_modules/react&#45;router&#45;dom.js</title>
<path fill="none" stroke="#c6c5fe" d="M603.33,-884C603.33,-884 57.67,-884 57.67,-884 53.83,-884 50,-880.17 50,-876.33 50,-876.33 50,-868.67 50,-868.67 50,-864.83 53.83,-861 57.67,-861 57.67,-861 603.33,-861 603.33,-861 607.17,-861 611,-864.83 611,-868.67 611,-868.67 611,-876.33 611,-876.33 611,-880.17 607.17,-884 603.33,-884"/>
<text text-anchor="middle" x="330.5" y="-868.8" font-family="Arial" font-size="14.00" fill="#c6c5fe">main/docker/keycloak&#45;themes&#45;folder/common/resources/web_modules/react&#45;router&#45;dom.js</text>
</g>
<!-- main/docker/keycloak&#45;themes&#45;folder/common/resources/web_modules/react&#45;router&#45;dom.js&#45;&gt;main/docker/keycloak&#45;themes&#45;folder/common/resources/web_modules/common/_commonjsHelpers&#45;a0c1554c.js -->
<g id="edge14" class="edge">
<title>main/docker/keycloak&#45;themes&#45;folder/common/resources/web_modules/react&#45;router&#45;dom.js&#45;&gt;main/docker/keycloak&#45;themes&#45;folder/common/resources/web_modules/common/_commonjsHelpers&#45;a0c1554c.js</title>
<path fill="none" stroke="#757575" d="M611.14,-874.13C889.5,-877.99 1283.81,-890.41 1344,-929.5 1373.34,-948.56 1351.23,-979.6 1380,-999.5 1452.74,-1049.82 1555.2,-1055.83 1630.01,-1051.66"/>
<polygon fill="#757575" stroke="#757575" points="1630.61,-1055.13 1640.37,-1051.01 1630.17,-1048.14 1630.61,-1055.13"/>
</g>
<!-- main/docker/keycloak&#45;themes&#45;folder/common/resources/web_modules/react&#45;router&#45;dom.js&#45;&gt;main/docker/keycloak&#45;themes&#45;folder/common/resources/web_modules/common/index&#45;3a303faf.js -->
<g id="edge15" class="edge">
<title>main/docker/keycloak&#45;themes&#45;folder/common/resources/web_modules/react&#45;router&#45;dom.js&#45;&gt;main/docker/keycloak&#45;themes&#45;folder/common/resources/web_modules/common/index&#45;3a303faf.js</title>
<path fill="none" stroke="#757575" d="M433.02,-884.01C559.88,-898.39 776.27,-922.93 907.75,-937.83"/>
<polygon fill="#757575" stroke="#757575" points="907.52,-941.33 917.85,-938.98 908.31,-934.37 907.52,-941.33"/>
</g>
<!-- main/docker/keycloak&#45;themes&#45;folder/common/resources/web_modules/react&#45;router&#45;dom.js&#45;&gt;main/docker/keycloak&#45;themes&#45;folder/common/resources/web_modules/react.js -->
<g id="edge16" class="edge">
<title>main/docker/keycloak&#45;themes&#45;folder/common/resources/web_modules/react&#45;router&#45;dom.js&#45;&gt;main/docker/keycloak&#45;themes&#45;folder/common/resources/web_modules/react.js</title>
<path fill="none" stroke="#757575" d="M550.29,-860.99C801.2,-849.29 1196.86,-835.84 1344,-858.5 1475.86,-878.81 1624.56,-936.22 1691.48,-964.03"/>
<polygon fill="#757575" stroke="#757575" points="1690.17,-967.28 1700.75,-967.91 1692.88,-960.82 1690.17,-967.28"/>
</g>
<!-- main/webapp/content/scripts/Lightbox.js -->
<g id="node31" class="node">
<title>main/webapp/content/scripts/Lightbox.js</title>
<path fill="none" stroke="#cfffac" d="M451.33,-1221C451.33,-1221 209.67,-1221 209.67,-1221 205.83,-1221 202,-1217.17 202,-1213.33 202,-1213.33 202,-1205.67 202,-1205.67 202,-1201.83 205.83,-1198 209.67,-1198 209.67,-1198 451.33,-1198 451.33,-1198 455.17,-1198 459,-1201.83 459,-1205.67 459,-1205.67 459,-1213.33 459,-1213.33 459,-1217.17 455.17,-1221 451.33,-1221"/>
<text text-anchor="middle" x="330.5" y="-1205.8" font-family="Arial" font-size="14.00" fill="#cfffac">main/webapp/content/scripts/Lightbox.js</text>
</g>
<!-- main/webapp/content/scripts/progressbar.min.js -->
<g id="node32" class="node">
<title>main/webapp/content/scripts/progressbar.min.js</title>
<path fill="none" stroke="#cfffac" d="M474.33,-1262C474.33,-1262 186.67,-1262 186.67,-1262 182.83,-1262 179,-1258.17 179,-1254.33 179,-1254.33 179,-1246.67 179,-1246.67 179,-1242.83 182.83,-1239 186.67,-1239 186.67,-1239 474.33,-1239 474.33,-1239 478.17,-1239 482,-1242.83 482,-1246.67 482,-1246.67 482,-1254.33 482,-1254.33 482,-1258.17 478.17,-1262 474.33,-1262"/>
<text text-anchor="middle" x="330.5" y="-1246.8" font-family="Arial" font-size="14.00" fill="#cfffac">main/webapp/content/scripts/progressbar.min.js</text>
</g>
<!-- main/webapp/content/scripts/quill.core.js -->
<g id="node33" class="node">
<title>main/webapp/content/scripts/quill.core.js</title>
<path fill="none" stroke="#cfffac" d="M452.83,-1303C452.83,-1303 208.17,-1303 208.17,-1303 204.33,-1303 200.5,-1299.17 200.5,-1295.33 200.5,-1295.33 200.5,-1287.67 200.5,-1287.67 200.5,-1283.83 204.33,-1280 208.17,-1280 208.17,-1280 452.83,-1280 452.83,-1280 456.67,-1280 460.5,-1283.83 460.5,-1287.67 460.5,-1287.67 460.5,-1295.33 460.5,-1295.33 460.5,-1299.17 456.67,-1303 452.83,-1303"/>
<text text-anchor="middle" x="330.5" y="-1287.8" font-family="Arial" font-size="14.00" fill="#cfffac">main/webapp/content/scripts/quill.core.js</text>
</g>
</g>
</svg>
